<svg id="Capa_1" enable-background="new 0 0 512.002 512.002" height="790"  width="790" viewBox="0 0 512.002 512.002" xmlns="http://www.w3.org/2000/svg"><g clip-rule="evenodd" fill-rule="evenodd"><path d="m55.662 184.861 119.227-119.241c8.302-8.292 3.461-23.184-8.711-24.404l-140.171-14.081c-8.996-1.045-16.85 6.536-15.934 15.669l14.056 139.912c1.051 12.756 16.012 17.668 24.461 9.218z" fill="#b278d3"/><path d="m364.474 284.04-29.32 29.32 134.503 134.503c4.031 4.031 10.628 4.031 14.659 0l14.66-14.66c4.032-4.031 4.032-10.628 0-14.66z" fill="#c68a65"/><path d="m335.154 313.359 29.32-29.32c4.032-4.031 4.032-10.628 0-14.66l-33.464-33.464v81.588z" fill="#ffc144"/><path d="m331.01 317.504v-81.588l-58.639-58.638v198.864z" fill="#ff5a58"/><path d="m272.371 376.142v-198.864l-58.639-58.639v224.293l38.595 38.595c4.032 4.032 10.628 4.032 14.659 0z" fill="#ffc144"/><path d="m96.455 225.655v-81.587l-40.793 40.793z" fill="#ff5a58"/><path d="m96.455 144.068v81.587l58.639 58.639v-198.865z" fill="#ffc144"/><path d="m155.094 85.429v198.865l58.639 58.638v-224.293l-45.924-45.924z" fill="#ff5a58"/></g><path d="m506.047 411.471-129.301-129.301c1.893-6.845.169-14.49-5.201-19.861l-32.963-32.963c-.324-.376-.676-.728-1.052-1.052l-155.587-155.586.012-.012c6.682-6.674 8.837-16.419 5.624-25.432-3.181-8.925-11-15.055-20.403-15.998l-25.304-2.542c-5.488-.547-10.397 3.456-10.95 8.95-.552 5.496 3.456 10.398 8.951 10.95l25.306 2.542c2.193.22 3.147 1.65 3.561 2.813.225.631.824 2.826-.923 4.571l-126.298 126.311c-1.814 1.815-3.974 1.216-4.592.989-1.179-.433-2.626-1.47-2.832-3.957-.005-.06-.01-.119-.017-.179l-14.055-139.908c-.177-1.768.725-2.945 1.278-3.49.563-.555 1.775-1.449 3.553-1.247.051.006.103.011.154.017l25.312 2.543c5.485.547 10.397-3.456 10.95-8.95.552-5.495-3.456-10.397-8.951-10.95l-25.245-2.536c-7.315-.817-14.529 1.679-19.804 6.871-5.279 5.196-7.884 12.391-7.147 19.74l14.048 139.833c.833 9.667 6.906 17.704 15.868 20.991 2.8 1.027 5.676 1.528 8.515 1.528 6.309 0 12.431-2.476 17.107-7.152l189.595 189.595c3.97 3.97 9.185 5.954 14.4 5.954 3.223 0 6.444-.763 9.374-2.279 7.798 3.443 12.452 11.35 17.738 20.363 6.063 10.34 12.938 22.059 26.238 25.574.856.227 1.716.335 2.563.335 4.428 0 8.477-2.965 9.661-7.447 1.411-5.34-1.773-10.813-7.112-12.224-5.331-1.409-9.394-8.336-14.098-16.356-4.797-8.178-10.426-17.763-19.544-24.337l50.679-50.679 127.431 127.432c3.971 3.97 9.186 5.955 14.4 5.955 5.216 0 10.431-1.985 14.401-5.955l14.66-14.661c7.94-7.941 7.94-20.861 0-28.803zm-148.644-134.502-16.393 16.393v-33.303l16.392 16.392c.127.125.127.392.001.518zm-36.393 36.392-38.638 38.639v-150.58l38.639 38.639v73.302zm-117.278-190.579v196.008l-38.639-38.639v-190.592l2.708-2.708zm-97.276 25.422 38.638-38.642v150.59l-38.638-38.638zm-20 53.309-16.653-16.653 16.653-16.655zm137.276 137.277v-196.008l38.639 38.639v190.579l-2.455 2.455c-.125.127-.393.127-.519.001zm268.173 87.34-14.66 14.661c-.123.127-.39.128-.517 0l-127.431-127.432 15.177-15.177 127.43 127.43c.126.126.127.393.001.518z"/><path d="m341.569 412.536c2.56 0 5.118-.977 7.071-2.929l13.888-13.888c3.905-3.905 3.905-10.237 0-14.143-3.906-3.904-10.236-3.904-14.143 0l-13.888 13.888c-3.905 3.905-3.905 10.237 0 14.143 1.954 1.953 4.512 2.929 7.072 2.929z"/><path d="m371.982 418.543h-19.641c-5.522 0-10 4.478-10 10s4.478 10 10 10h19.641c5.522 0 10-4.478 10-10s-4.478-10-10-10z"/><path d="m348.64 447.479c-3.906-3.904-10.236-3.904-14.143 0-3.905 3.905-3.905 10.237 0 14.143l13.888 13.888c1.953 1.952 4.512 2.929 7.071 2.929s5.118-.977 7.071-2.929c3.905-3.905 3.905-10.237 0-14.143z"/><path d="m315.562 455.321c-5.522 0-10 4.478-10 10v19.642c0 5.522 4.478 10 10 10s10-4.478 10-10v-19.642c0-5.522-4.477-10-10-10z"/><path d="m282.484 447.479-13.888 13.888c-3.905 3.905-3.905 10.237 0 14.143 1.953 1.952 4.512 2.929 7.071 2.929s5.118-.977 7.071-2.929l13.888-13.888c3.905-3.905 3.905-10.237 0-14.143-3.906-3.905-10.236-3.905-14.142 0z"/><path d="m96.1 44.176c5.523 0 10-4.478 10-10s-4.477-10-10-10h-.007c-5.523 0-9.996 4.478-9.996 10s4.48 10 10.003 10z"/></svg>